<svg width="67" height="12" viewBox="0 0 67 12" fill="none" xmlns="http://www.w3.org/2000/svg">
<path d="M1.92045 2.45455H2.92614V9.47727C2.92614 9.88068 2.85653 10.2301 2.71733 10.5256C2.58097 10.821 2.37358 11.0497 2.09517 11.2116C1.8196 11.3736 1.47159 11.4545 1.05114 11.4545C1.01705 11.4545 0.982955 11.4545 0.948864 11.4545C0.914773 11.4545 0.880682 11.4545 0.846591 11.4545V10.517C0.880682 10.517 0.911932 10.517 0.940341 10.517C0.96875 10.517 1 10.517 1.03409 10.517C1.34091 10.517 1.56534 10.4261 1.70739 10.2443C1.84943 10.0653 1.92045 9.80966 1.92045 9.47727V2.45455ZM2.41477 1.36364C2.21875 1.36364 2.04972 1.29688 1.90767 1.16335C1.76847 1.02983 1.69886 0.869318 1.69886 0.681818C1.69886 0.494318 1.76847 0.333807 1.90767 0.200284C2.04972 0.0667613 2.21875 0 2.41477 0C2.6108 0 2.77841 0.0667613 2.91761 0.200284C3.05966 0.333807 3.13068 0.494318 3.13068 0.681818C3.13068 0.869318 3.05966 1.02983 2.91761 1.16335C2.77841 1.29688 2.6108 1.36364 2.41477 1.36364ZM6.69425 9.15341C6.27947 9.15341 5.90305 9.07528 5.56499 8.91903C5.22692 8.75994 4.95845 8.53125 4.75959 8.23295C4.56072 7.93182 4.46129 7.56818 4.46129 7.14205C4.46129 6.76705 4.53516 6.46307 4.68288 6.23011C4.83061 5.99432 5.02805 5.80966 5.27521 5.67614C5.52237 5.54261 5.7951 5.44318 6.09339 5.37784C6.39453 5.30966 6.69709 5.25568 7.00107 5.21591C7.39879 5.16477 7.72124 5.12642 7.9684 5.10085C8.2184 5.07244 8.40021 5.02557 8.51385 4.96023C8.63033 4.89489 8.68857 4.78125 8.68857 4.61932V4.58523C8.68857 4.16477 8.57351 3.83807 8.3434 3.60511C8.11612 3.37216 7.77095 3.25568 7.30788 3.25568C6.82777 3.25568 6.45135 3.3608 6.17862 3.57102C5.90589 3.78125 5.71413 4.00568 5.60334 4.24432L4.64879 3.90341C4.81925 3.50568 5.04652 3.19602 5.33061 2.97443C5.61754 2.75 5.93004 2.59375 6.26811 2.50568C6.60902 2.41477 6.94425 2.36932 7.27379 2.36932C7.48402 2.36932 7.7255 2.39489 7.99822 2.44602C8.27379 2.49432 8.53942 2.59517 8.7951 2.74858C9.05362 2.90199 9.26811 3.13352 9.43857 3.44318C9.60902 3.75284 9.69425 4.16761 9.69425 4.6875V9H8.68857V8.11364H8.63743C8.56925 8.25568 8.45561 8.40767 8.29652 8.5696C8.13743 8.73153 7.92578 8.86932 7.66158 8.98295C7.39737 9.09659 7.07493 9.15341 6.69425 9.15341ZM6.84766 8.25C7.24538 8.25 7.58061 8.17188 7.85334 8.01562C8.12891 7.85938 8.33629 7.65767 8.4755 7.41051C8.61754 7.16335 8.68857 6.90341 8.68857 6.63068V5.71023C8.64595 5.76136 8.5522 5.80824 8.40732 5.85085C8.26527 5.89062 8.1005 5.92614 7.913 5.95739C7.72834 5.9858 7.54794 6.01136 7.3718 6.03409C7.19851 6.05398 7.05788 6.07102 6.94993 6.08523C6.68857 6.11932 6.44425 6.17472 6.21697 6.25142C5.99254 6.32528 5.81072 6.4375 5.67152 6.58807C5.53516 6.7358 5.46697 6.9375 5.46697 7.19318C5.46697 7.54261 5.59624 7.80682 5.85476 7.9858C6.11612 8.16193 6.44709 8.25 6.84766 8.25ZM12.5355 5.0625V9H11.5298V2.45455H12.5014V3.47727H12.5866C12.7401 3.14489 12.973 2.87784 13.2855 2.67614C13.598 2.47159 14.0014 2.36932 14.4957 2.36932C14.9389 2.36932 15.3267 2.46023 15.6591 2.64205C15.9915 2.82102 16.25 3.09375 16.4347 3.46023C16.6193 3.82386 16.7116 4.28409 16.7116 4.84091V9H15.706V4.90909C15.706 4.39489 15.5724 3.99432 15.3054 3.70739C15.0384 3.41761 14.6719 3.27273 14.206 3.27273C13.8849 3.27273 13.598 3.34233 13.3452 3.48153C13.0952 3.62074 12.8977 3.82386 12.7528 4.09091C12.608 4.35795 12.5355 4.68182 12.5355 5.0625ZM19.2823 9.06818C19.0721 9.06818 18.8917 8.9929 18.7411 8.84233C18.5906 8.69176 18.5153 8.51136 18.5153 8.30114C18.5153 8.09091 18.5906 7.91051 18.7411 7.75994C18.8917 7.60937 19.0721 7.53409 19.2823 7.53409C19.4925 7.53409 19.6729 7.60937 19.8235 7.75994C19.9741 7.91051 20.0494 8.09091 20.0494 8.30114C20.0494 8.44034 20.0138 8.56818 19.9428 8.68466C19.8746 8.80114 19.7823 8.89489 19.6658 8.96591C19.5522 9.03409 19.4244 9.06818 19.2823 9.06818ZM22.7915 6.61364L22.7745 5.36932H22.979L25.8427 2.45455H27.087L24.0359 5.53977H23.9506L22.7915 6.61364ZM21.854 9V0.272727H22.8597V9H21.854ZM26.0131 9L23.4563 5.76136L24.1722 5.0625L27.2915 9H26.0131ZM30.771 9.13636C30.18 9.13636 29.6616 8.99574 29.2156 8.71449C28.7724 8.43324 28.4258 8.03977 28.1758 7.53409C27.9286 7.02841 27.805 6.4375 27.805 5.76136C27.805 5.07955 27.9286 4.48437 28.1758 3.97585C28.4258 3.46733 28.7724 3.07244 29.2156 2.79119C29.6616 2.50994 30.18 2.36932 30.771 2.36932C31.3619 2.36932 31.8789 2.50994 32.3221 2.79119C32.7681 3.07244 33.1147 3.46733 33.3619 3.97585C33.6119 4.48437 33.7369 5.07955 33.7369 5.76136C33.7369 6.4375 33.6119 7.02841 33.3619 7.53409C33.1147 8.03977 32.7681 8.43324 32.3221 8.71449C31.8789 8.99574 31.3619 9.13636 30.771 9.13636ZM30.771 8.23295C31.2198 8.23295 31.5891 8.1179 31.8789 7.88778C32.1687 7.65767 32.3832 7.35511 32.5224 6.98011C32.6616 6.60511 32.7312 6.19886 32.7312 5.76136C32.7312 5.32386 32.6616 4.91619 32.5224 4.53835C32.3832 4.16051 32.1687 3.85511 31.8789 3.62216C31.5891 3.3892 31.2198 3.27273 30.771 3.27273C30.3221 3.27273 29.9528 3.3892 29.663 3.62216C29.3732 3.85511 29.1587 4.16051 29.0195 4.53835C28.8803 4.91619 28.8107 5.32386 28.8107 5.76136C28.8107 6.19886 28.8803 6.60511 29.0195 6.98011C29.1587 7.35511 29.3732 7.65767 29.663 7.88778C29.9528 8.1179 30.3221 8.23295 30.771 8.23295ZM39.397 6.32386V2.45455H40.4027V9H39.397V7.89205H39.3288C39.1754 8.22443 38.9368 8.5071 38.6129 8.74006C38.2891 8.97017 37.88 9.08523 37.3857 9.08523C36.9766 9.08523 36.6129 8.99574 36.2947 8.81676C35.9766 8.63494 35.7266 8.36222 35.5447 7.99858C35.3629 7.6321 35.272 7.17045 35.272 6.61364V2.45455H36.2777V6.54545C36.2777 7.02273 36.4112 7.40341 36.6783 7.6875C36.9482 7.97159 37.2919 8.11364 37.7095 8.11364C37.9595 8.11364 38.2138 8.04972 38.4723 7.92188C38.7337 7.79403 38.9524 7.59801 39.1286 7.33381C39.3075 7.0696 39.397 6.73295 39.397 6.32386ZM46.881 3.92045L45.9776 4.17614C45.9208 4.02557 45.837 3.87926 45.7262 3.73722C45.6183 3.59233 45.4705 3.47301 45.283 3.37926C45.0955 3.28551 44.8555 3.23864 44.5629 3.23864C44.1623 3.23864 43.8285 3.33097 43.5614 3.51562C43.2972 3.69744 43.1651 3.92898 43.1651 4.21023C43.1651 4.46023 43.256 4.65767 43.4379 4.80256C43.6197 4.94744 43.9038 5.06818 44.2901 5.16477L45.2617 5.40341C45.8469 5.54545 46.283 5.76278 46.57 6.0554C46.8569 6.34517 47.0004 6.71875 47.0004 7.17614C47.0004 7.55114 46.8924 7.88636 46.6765 8.18182C46.4634 8.47727 46.1651 8.71023 45.7816 8.88068C45.3981 9.05114 44.9521 9.13636 44.4435 9.13636C43.7759 9.13636 43.2234 8.99148 42.7859 8.7017C42.3484 8.41193 42.0714 7.98864 41.9549 7.43182L42.9094 7.19318C43.0004 7.54545 43.1722 7.80966 43.4251 7.9858C43.6808 8.16193 44.0146 8.25 44.4265 8.25C44.8952 8.25 45.2674 8.15057 45.543 7.9517C45.8214 7.75 45.9606 7.50852 45.9606 7.22727C45.9606 7 45.881 6.80966 45.7219 6.65625C45.5629 6.5 45.3185 6.38352 44.989 6.30682L43.8981 6.05114C43.2987 5.90909 42.8583 5.68892 42.5771 5.39062C42.2987 5.08949 42.1594 4.71307 42.1594 4.26136C42.1594 3.89205 42.2631 3.56534 42.4705 3.28125C42.6808 2.99716 42.9663 2.77415 43.3271 2.61222C43.6907 2.45028 44.1026 2.36932 44.5629 2.36932C45.2106 2.36932 45.7191 2.51136 46.0884 2.79545C46.4606 3.07955 46.7248 3.45455 46.881 3.92045ZM50.4403 9.15341C50.0256 9.15341 49.6491 9.07528 49.3111 8.91903C48.973 8.75994 48.7045 8.53125 48.5057 8.23295C48.3068 7.93182 48.2074 7.56818 48.2074 7.14205C48.2074 6.76705 48.2813 6.46307 48.429 6.23011C48.5767 5.99432 48.7741 5.80966 49.0213 5.67614C49.2685 5.54261 49.5412 5.44318 49.8395 5.37784C50.1406 5.30966 50.4432 5.25568 50.7472 5.21591C51.1449 5.16477 51.4673 5.12642 51.7145 5.10085C51.9645 5.07244 52.1463 5.02557 52.2599 4.96023C52.3764 4.89489 52.4347 4.78125 52.4347 4.61932V4.58523C52.4347 4.16477 52.3196 3.83807 52.0895 3.60511C51.8622 3.37216 51.517 3.25568 51.054 3.25568C50.5739 3.25568 50.1974 3.3608 49.9247 3.57102C49.652 3.78125 49.4602 4.00568 49.3494 4.24432L48.3949 3.90341C48.5653 3.50568 48.7926 3.19602 49.0767 2.97443C49.3636 2.75 49.6761 2.59375 50.0142 2.50568C50.3551 2.41477 50.6903 2.36932 51.0199 2.36932C51.2301 2.36932 51.4716 2.39489 51.7443 2.44602C52.0199 2.49432 52.2855 2.59517 52.5412 2.74858C52.7997 2.90199 53.0142 3.13352 53.1847 3.44318C53.3551 3.75284 53.4403 4.16761 53.4403 4.6875V9H52.4347V8.11364H52.3835C52.3153 8.25568 52.2017 8.40767 52.0426 8.5696C51.8835 8.73153 51.6719 8.86932 51.4077 8.98295C51.1435 9.09659 50.821 9.15341 50.4403 9.15341ZM50.5938 8.25C50.9915 8.25 51.3267 8.17188 51.5994 8.01562C51.875 7.85938 52.0824 7.65767 52.2216 7.41051C52.3636 7.16335 52.4347 6.90341 52.4347 6.63068V5.71023C52.392 5.76136 52.2983 5.80824 52.1534 5.85085C52.0114 5.89062 51.8466 5.92614 51.6591 5.95739C51.4744 5.9858 51.294 6.01136 51.1179 6.03409C50.9446 6.05398 50.804 6.07102 50.696 6.08523C50.4347 6.11932 50.1903 6.17472 49.9631 6.25142C49.7386 6.32528 49.5568 6.4375 49.4176 6.58807C49.2813 6.7358 49.2131 6.9375 49.2131 7.19318C49.2131 7.54261 49.3423 7.80682 49.6009 7.9858C49.8622 8.16193 50.1932 8.25 50.5938 8.25ZM56.2816 0.272727V9H55.2759V0.272727H56.2816ZM58.1236 9V2.45455H59.1293V9H58.1236ZM58.6349 1.36364C58.4389 1.36364 58.2699 1.29688 58.1278 1.16335C57.9886 1.02983 57.919 0.869318 57.919 0.681818C57.919 0.494318 57.9886 0.333807 58.1278 0.200284C58.2699 0.0667613 58.4389 0 58.6349 0C58.831 0 58.9986 0.0667613 59.1378 0.200284C59.2798 0.333807 59.3509 0.494318 59.3509 0.681818C59.3509 0.869318 59.2798 1.02983 59.1378 1.16335C58.9986 1.29688 58.831 1.36364 58.6349 1.36364ZM61.9087 6.61364L61.8917 5.36932H62.0962L64.9599 2.45455H66.2042L63.1531 5.53977H63.0678L61.9087 6.61364ZM60.9712 9V0.272727H61.9769V9H60.9712ZM65.1303 9L62.5735 5.76136L63.2894 5.0625L66.4087 9H65.1303Z" fill="black"/>
</svg>
